<?xml version="1.0" encoding="UTF-8"?>
<svg id="Capa_2" data-name="Capa 2" xmlns="http://www.w3.org/2000/svg" viewBox="0 0 192.92 188.47">
  <defs>
    <style>
      .cls-1 {
        fill: #89c53f;
        stroke-width: 0px;
      }
    </style>
  </defs>
  <g id="Capa_1-2" data-name="Capa 1">
    <path class="cls-1" d="m84.94,75.7c-.39-17.31,14.26-32.47,32.9-31.91,17.59.53,31.5,13.94,31.37,32.35-.13,18.32-13.99,31.83-32.27,32.01-17.8.17-32.62-14.6-32-32.45Z"/>
    <path class="cls-1" d="m59.18,26.65c-.52.8-1.04,1.6-1.63,2.34-7,8.78-11.89,18.64-14.27,29.56-1.3,5.94-2,12.12-2.07,18.2l.03,111.71c.76,0,8.75,0,9.31,0,10.53,0,13.63,0,24.16,0,2.18,0,2.18-36.58,2.18-38.8,0-24.1,0-48.19,0-72.29,0-6.9,1.24-13.51,4.56-19.63,7.4-13.68,18.99-20.91,34.39-21.8,6.75-.39,13.28,1.16,19.32,4.4,13.71,7.36,20.96,18.93,21.93,34.32.43,6.88-1.2,13.51-4.5,19.63-7.25,13.43-18.65,20.64-33.75,21.69-3.95.28-8.06-.54-11.98-1.41-8.27-1.85-14.96-6.4-20.39-12.87-.86-1.02-1.72-2.03-2.78-3.29,0,15.04.01,29.67-.03,44.31,0,1.11.49,1.65,1.35,2.04,9.24,4.26,18.99,6.55,29.11,7.05,7.38.36,14.67-.63,21.85-2.46,8.39-2.14,16.16-5.63,23.34-10.46,10.33-6.95,18.49-15.93,24.43-26.83,4.6-8.44,7.34-17.52,8.6-27.09.96-7.29.65-14.52-.53-21.68-1.2-7.26-3.47-14.25-6.8-20.86-4.55-9.02-10.47-16.97-18.17-23.57-4.65-3.99-9.66-7.42-15.11-10.27-7.12-3.72-14.66-6.26-22.56-7.44-6.03-.9-12.15-1.75-18.3-.63-4.24.77-8.54,1.25-12.76,2.12-10.66,2.19-19.59,8.08-28.7,13.58"/>
    <path class="cls-1" d="m.01,18.35C-.21,8.4,8.21-.32,18.92,0c10.11.31,18.11,8.01,18.03,18.6-.08,10.53-8.04,18.3-18.55,18.4C8.17,37.1-.35,28.61.01,18.35ZM18.48,4.55c-7.7,0-13.95,6.25-13.95,13.95s6.25,13.95,13.95,13.95,13.95-6.25,13.95-13.95-6.25-13.95-13.95-13.95Z"/>
    <circle class="cls-1" cx="18.48" cy="18.5" r="10.81"/>
    <polygon class="cls-1" points="34.17 42.05 .78 42.05 .78 187.52 13.95 187.52 13.95 52.88 21.01 52.88 21.01 187.52 34.17 187.52 34.17 42.05"/>
  </g>
</svg>